# xmcd CD database file
#
# Track frame offsets:
#	150
#	25921
#	43425
#	73437
#	99710
#	125735
#	150025
#	173376
#	195777
#
# Disc length: 3038 seconds
#
# Revision: 0
# Processed by: cddbd v1.5.1PL2 Copyright (c) Steve Scherf et al.
# Submitted via: CDex 1.50
#
DISCID=710bdc09
DTITLE=Nico Morelli - Morelli
DYEAR=1900
DGENRE=Jazz
TTITLE0=Tarantè
TTITLE1=Blues Zen
TTITLE2=Il Canto di Sadonè
TTITLE3=Pezzo X
TTITLE4=Sogno
TTITLE5=Love for Sale
TTITLE6=Finding
TTITLE7=chi legge
TTITLE8=Alba di Millennio
EXTD=
EXTT0=
EXTT1=
EXTT2=
EXTT3=
EXTT4=
EXTT5=
EXTT6=
EXTT7=
EXTT8=
PLAYORDER=
